<mxfile host="app.diagrams.net" agent="Mozilla/5.0 (Windows NT 10.0; Win64; x64) AppleWebKit/537.36 (KHTML, like Gecko) Chrome/141.0.0.0 Safari/537.36" version="28.2.5">
  <diagram name="Trang-1" id="oSde0UNd30fZGhORN9Rq">
    <mxGraphModel grid="1" page="1" gridSize="10" guides="1" tooltips="1" connect="1" arrows="1" fold="1" pageScale="1" pageWidth="827" pageHeight="1169" math="0" shadow="0">
      <root>
        <mxCell id="0" />
        <mxCell id="1" parent="0" />
        <mxCell id="d7jLBemJhKZGt51rczIr-26" style="edgeStyle=orthogonalEdgeStyle;rounded=0;orthogonalLoop=1;jettySize=auto;html=1;entryX=1;entryY=0.5;entryDx=0;entryDy=0;endArrow=none;endFill=0;exitX=0.5;exitY=0;exitDx=0;exitDy=0;" edge="1" parent="1" source="d7jLBemJhKZGt51rczIr-1" target="d7jLBemJhKZGt51rczIr-11">
          <mxGeometry relative="1" as="geometry">
            <Array as="points">
              <mxPoint x="-60" y="50" />
              <mxPoint x="-130" y="50" />
              <mxPoint x="-130" y="-40" />
            </Array>
            <mxPoint x="-120" y="10" as="sourcePoint" />
          </mxGeometry>
        </mxCell>
        <mxCell id="nzNf29XOqBKROtPsoa88-130" style="edgeStyle=orthogonalEdgeStyle;rounded=0;orthogonalLoop=1;jettySize=auto;html=1;entryX=0.5;entryY=0;entryDx=0;entryDy=0;endArrow=ERmandOne;endFill=0;startArrow=ERmandOne;startFill=0;" edge="1" parent="1" source="nzNf29XOqBKROtPsoa88-131" target="nzNf29XOqBKROtPsoa88-117">
          <mxGeometry relative="1" as="geometry" />
        </mxCell>
        <mxCell id="d7jLBemJhKZGt51rczIr-1" value="Users" style="rounded=0;whiteSpace=wrap;html=1;" vertex="1" parent="1">
          <mxGeometry x="-110" y="105" width="100" height="40" as="geometry" />
        </mxCell>
        <mxCell id="d7jLBemJhKZGt51rczIr-3" value="product" style="rounded=0;whiteSpace=wrap;html=1;" vertex="1" parent="1">
          <mxGeometry x="816" y="150" width="100" height="40" as="geometry" />
        </mxCell>
        <mxCell id="d7jLBemJhKZGt51rczIr-28" style="edgeStyle=orthogonalEdgeStyle;rounded=0;orthogonalLoop=1;jettySize=auto;html=1;entryX=0.5;entryY=0;entryDx=0;entryDy=0;endArrow=none;endFill=0;" edge="1" parent="1" source="d7jLBemJhKZGt51rczIr-5" target="d7jLBemJhKZGt51rczIr-18">
          <mxGeometry relative="1" as="geometry" />
        </mxCell>
        <mxCell id="d7jLBemJhKZGt51rczIr-29" style="edgeStyle=orthogonalEdgeStyle;rounded=0;orthogonalLoop=1;jettySize=auto;html=1;entryX=0.5;entryY=0;entryDx=0;entryDy=0;endArrow=none;endFill=0;" edge="1" parent="1" source="d7jLBemJhKZGt51rczIr-5" target="d7jLBemJhKZGt51rczIr-19">
          <mxGeometry relative="1" as="geometry" />
        </mxCell>
        <mxCell id="d7jLBemJhKZGt51rczIr-5" value="paymentMethod" style="rounded=0;whiteSpace=wrap;html=1;" vertex="1" parent="1">
          <mxGeometry x="535" y="360" width="100" height="40" as="geometry" />
        </mxCell>
        <mxCell id="d7jLBemJhKZGt51rczIr-47" style="edgeStyle=orthogonalEdgeStyle;rounded=0;orthogonalLoop=1;jettySize=auto;html=1;entryX=0.5;entryY=1;entryDx=0;entryDy=0;endArrow=none;endFill=0;" edge="1" parent="1" source="d7jLBemJhKZGt51rczIr-7" target="d7jLBemJhKZGt51rczIr-45">
          <mxGeometry relative="1" as="geometry" />
        </mxCell>
        <mxCell id="d7jLBemJhKZGt51rczIr-48" style="edgeStyle=orthogonalEdgeStyle;rounded=0;orthogonalLoop=1;jettySize=auto;html=1;entryX=0;entryY=0.5;entryDx=0;entryDy=0;endArrow=none;endFill=0;" edge="1" parent="1" source="d7jLBemJhKZGt51rczIr-7" target="d7jLBemJhKZGt51rczIr-46">
          <mxGeometry relative="1" as="geometry" />
        </mxCell>
        <mxCell id="d7jLBemJhKZGt51rczIr-7" value="Categories" style="rounded=0;whiteSpace=wrap;html=1;" vertex="1" parent="1">
          <mxGeometry x="984" y="-130" width="100" height="40" as="geometry" />
        </mxCell>
        <mxCell id="nzNf29XOqBKROtPsoa88-144" style="edgeStyle=orthogonalEdgeStyle;rounded=0;orthogonalLoop=1;jettySize=auto;html=1;entryX=0.5;entryY=0;entryDx=0;entryDy=0;endArrow=none;endFill=0;" edge="1" parent="1" source="d7jLBemJhKZGt51rczIr-10" target="d7jLBemJhKZGt51rczIr-1">
          <mxGeometry relative="1" as="geometry" />
        </mxCell>
        <mxCell id="d7jLBemJhKZGt51rczIr-10" value="username" style="ellipse;whiteSpace=wrap;html=1;" vertex="1" parent="1">
          <mxGeometry x="-130" y="-25" width="110" height="50" as="geometry" />
        </mxCell>
        <mxCell id="d7jLBemJhKZGt51rczIr-11" value="userID" style="ellipse;whiteSpace=wrap;html=1;" vertex="1" parent="1">
          <mxGeometry x="-270" y="-65" width="110" height="50" as="geometry" />
        </mxCell>
        <mxCell id="d7jLBemJhKZGt51rczIr-21" style="edgeStyle=orthogonalEdgeStyle;rounded=0;orthogonalLoop=1;jettySize=auto;html=1;entryX=0.5;entryY=0;entryDx=0;entryDy=0;endArrow=none;endFill=0;" edge="1" parent="1" source="d7jLBemJhKZGt51rczIr-13" target="d7jLBemJhKZGt51rczIr-17">
          <mxGeometry relative="1" as="geometry">
            <Array as="points">
              <mxPoint x="-350" y="360" />
              <mxPoint x="-275" y="360" />
            </Array>
          </mxGeometry>
        </mxCell>
        <mxCell id="d7jLBemJhKZGt51rczIr-22" style="edgeStyle=orthogonalEdgeStyle;rounded=0;orthogonalLoop=1;jettySize=auto;html=1;entryX=0.5;entryY=0;entryDx=0;entryDy=0;endArrow=none;endFill=0;" edge="1" parent="1" source="d7jLBemJhKZGt51rczIr-13" target="d7jLBemJhKZGt51rczIr-16">
          <mxGeometry relative="1" as="geometry" />
        </mxCell>
        <mxCell id="d7jLBemJhKZGt51rczIr-13" value="Addresses" style="rounded=0;whiteSpace=wrap;html=1;" vertex="1" parent="1">
          <mxGeometry x="-400" y="310" width="100" height="40" as="geometry" />
        </mxCell>
        <mxCell id="d7jLBemJhKZGt51rczIr-49" style="edgeStyle=orthogonalEdgeStyle;rounded=0;orthogonalLoop=1;jettySize=auto;html=1;entryX=0.5;entryY=1;entryDx=0;entryDy=0;endArrow=none;endFill=0;exitX=1;exitY=0.5;exitDx=0;exitDy=0;" edge="1" parent="1" source="d7jLBemJhKZGt51rczIr-3" target="d7jLBemJhKZGt51rczIr-44">
          <mxGeometry relative="1" as="geometry" />
        </mxCell>
        <mxCell id="d7jLBemJhKZGt51rczIr-15" value="addressID" style="ellipse;whiteSpace=wrap;html=1;" vertex="1" parent="1">
          <mxGeometry x="-490" y="380" width="110" height="50" as="geometry" />
        </mxCell>
        <mxCell id="d7jLBemJhKZGt51rczIr-16" value="userId" style="ellipse;whiteSpace=wrap;html=1;" vertex="1" parent="1">
          <mxGeometry x="-405" y="440" width="110" height="50" as="geometry" />
        </mxCell>
        <mxCell id="d7jLBemJhKZGt51rczIr-17" value="address" style="ellipse;whiteSpace=wrap;html=1;" vertex="1" parent="1">
          <mxGeometry x="-330" y="380" width="110" height="50" as="geometry" />
        </mxCell>
        <mxCell id="d7jLBemJhKZGt51rczIr-18" value="id" style="ellipse;whiteSpace=wrap;html=1;" vertex="1" parent="1">
          <mxGeometry x="470" y="440" width="110" height="50" as="geometry" />
        </mxCell>
        <mxCell id="d7jLBemJhKZGt51rczIr-19" value="name" style="ellipse;whiteSpace=wrap;html=1;" vertex="1" parent="1">
          <mxGeometry x="590" y="440" width="110" height="50" as="geometry" />
        </mxCell>
        <mxCell id="d7jLBemJhKZGt51rczIr-20" style="edgeStyle=orthogonalEdgeStyle;rounded=0;orthogonalLoop=1;jettySize=auto;html=1;entryX=0.625;entryY=-0.004;entryDx=0;entryDy=0;entryPerimeter=0;endArrow=none;endFill=0;" edge="1" parent="1" source="d7jLBemJhKZGt51rczIr-13" target="d7jLBemJhKZGt51rczIr-15">
          <mxGeometry relative="1" as="geometry">
            <Array as="points">
              <mxPoint x="-350" y="360" />
              <mxPoint x="-421" y="360" />
            </Array>
          </mxGeometry>
        </mxCell>
        <mxCell id="tjTPalz4Y8jjselVKnhg-57" style="edgeStyle=orthogonalEdgeStyle;rounded=0;orthogonalLoop=1;jettySize=auto;html=1;entryX=1;entryY=0.5;entryDx=0;entryDy=0;endArrow=none;endFill=0;" edge="1" parent="1" source="d7jLBemJhKZGt51rczIr-30" target="d7jLBemJhKZGt51rczIr-3">
          <mxGeometry relative="1" as="geometry" />
        </mxCell>
        <mxCell id="d7jLBemJhKZGt51rczIr-30" value="productID" style="ellipse;whiteSpace=wrap;html=1;" vertex="1" parent="1">
          <mxGeometry x="953" y="190" width="110" height="50" as="geometry" />
        </mxCell>
        <mxCell id="tjTPalz4Y8jjselVKnhg-54" style="edgeStyle=orthogonalEdgeStyle;rounded=0;orthogonalLoop=1;jettySize=auto;html=1;entryX=1;entryY=0.5;entryDx=0;entryDy=0;endArrow=none;endFill=0;" edge="1" parent="1" source="d7jLBemJhKZGt51rczIr-32" target="d7jLBemJhKZGt51rczIr-3">
          <mxGeometry relative="1" as="geometry" />
        </mxCell>
        <mxCell id="d7jLBemJhKZGt51rczIr-32" value="image" style="ellipse;whiteSpace=wrap;html=1;" vertex="1" parent="1">
          <mxGeometry x="979" y="50" width="110" height="50" as="geometry" />
        </mxCell>
        <mxCell id="tjTPalz4Y8jjselVKnhg-55" style="edgeStyle=orthogonalEdgeStyle;rounded=0;orthogonalLoop=1;jettySize=auto;html=1;entryX=1;entryY=0.5;entryDx=0;entryDy=0;endArrow=none;endFill=0;" edge="1" parent="1" source="d7jLBemJhKZGt51rczIr-33" target="d7jLBemJhKZGt51rczIr-3">
          <mxGeometry relative="1" as="geometry">
            <mxPoint x="963.0000000000005" y="170" as="targetPoint" />
          </mxGeometry>
        </mxCell>
        <mxCell id="d7jLBemJhKZGt51rczIr-33" value="unitPrice" style="ellipse;whiteSpace=wrap;html=1;" vertex="1" parent="1">
          <mxGeometry x="984" y="125" width="110" height="50" as="geometry" />
        </mxCell>
        <mxCell id="tjTPalz4Y8jjselVKnhg-60" style="edgeStyle=orthogonalEdgeStyle;rounded=0;orthogonalLoop=1;jettySize=auto;html=1;entryX=1;entryY=0.5;entryDx=0;entryDy=0;endArrow=none;endFill=0;" edge="1" parent="1" source="d7jLBemJhKZGt51rczIr-31" target="d7jLBemJhKZGt51rczIr-3">
          <mxGeometry relative="1" as="geometry" />
        </mxCell>
        <mxCell id="d7jLBemJhKZGt51rczIr-31" value="productName" style="ellipse;whiteSpace=wrap;html=1;" vertex="1" parent="1">
          <mxGeometry x="1076" y="85" width="110" height="50" as="geometry" />
        </mxCell>
        <mxCell id="d7jLBemJhKZGt51rczIr-44" value="describe" style="ellipse;whiteSpace=wrap;html=1;" vertex="1" parent="1">
          <mxGeometry x="1083" y="30" width="110" height="50" as="geometry" />
        </mxCell>
        <mxCell id="d7jLBemJhKZGt51rczIr-45" value="categoryID" style="ellipse;whiteSpace=wrap;html=1;" vertex="1" parent="1">
          <mxGeometry x="979" y="-210" width="110" height="50" as="geometry" />
        </mxCell>
        <mxCell id="d7jLBemJhKZGt51rczIr-46" value="categoryName" style="ellipse;whiteSpace=wrap;html=1;" vertex="1" parent="1">
          <mxGeometry x="1128" y="-135" width="110" height="50" as="geometry" />
        </mxCell>
        <mxCell id="tjTPalz4Y8jjselVKnhg-58" style="edgeStyle=orthogonalEdgeStyle;rounded=0;orthogonalLoop=1;jettySize=auto;html=1;entryX=1;entryY=0.5;entryDx=0;entryDy=0;endArrow=none;endFill=0;" edge="1" parent="1" source="d7jLBemJhKZGt51rczIr-61" target="d7jLBemJhKZGt51rczIr-3">
          <mxGeometry relative="1" as="geometry" />
        </mxCell>
        <mxCell id="d7jLBemJhKZGt51rczIr-61" value="categoryId" style="ellipse;whiteSpace=wrap;html=1;" vertex="1" parent="1">
          <mxGeometry x="1073" y="175" width="110" height="50" as="geometry" />
        </mxCell>
        <mxCell id="d7jLBemJhKZGt51rczIr-67" value="" style="fontSize=12;html=1;endArrow=ERzeroToMany;endFill=1;rounded=0;exitX=0.5;exitY=1;exitDx=0;exitDy=0;startArrow=ERmandOne;startFill=0;" edge="1" parent="1" source="wUvY-wP0sRyieCnbG_YS-14" target="d7jLBemJhKZGt51rczIr-13">
          <mxGeometry width="100" height="100" relative="1" as="geometry">
            <mxPoint x="230" y="190" as="sourcePoint" />
            <mxPoint x="250" y="360" as="targetPoint" />
            <Array as="points" />
          </mxGeometry>
        </mxCell>
        <mxCell id="d7jLBemJhKZGt51rczIr-69" value="" style="fontSize=12;html=1;endArrow=ERzeroToMany;startArrow=ERmandOne;rounded=0;entryX=1;entryY=0.5;entryDx=0;entryDy=0;exitX=0.5;exitY=1;exitDx=0;exitDy=0;edgeStyle=orthogonalEdgeStyle;" edge="1" parent="1" source="d7jLBemJhKZGt51rczIr-7" target="tjTPalz4Y8jjselVKnhg-3">
          <mxGeometry width="100" height="100" relative="1" as="geometry">
            <mxPoint x="953" y="170" as="sourcePoint" />
            <mxPoint x="1053" y="70" as="targetPoint" />
          </mxGeometry>
        </mxCell>
        <mxCell id="tjTPalz4Y8jjselVKnhg-4" style="edgeStyle=orthogonalEdgeStyle;rounded=0;orthogonalLoop=1;jettySize=auto;html=1;endArrow=ERzeroToMany;endFill=0;startArrow=ERmandOne;startFill=0;exitX=0;exitY=0.5;exitDx=0;exitDy=0;" edge="1" parent="1" source="tjTPalz4Y8jjselVKnhg-3" target="d7jLBemJhKZGt51rczIr-3">
          <mxGeometry relative="1" as="geometry">
            <mxPoint x="893" y="180" as="targetPoint" />
            <Array as="points">
              <mxPoint x="878" y="-20" />
            </Array>
          </mxGeometry>
        </mxCell>
        <mxCell id="tjTPalz4Y8jjselVKnhg-3" value="Is" style="rhombus;whiteSpace=wrap;html=1;" vertex="1" parent="1">
          <mxGeometry x="913" y="-40" width="103" height="40" as="geometry" />
        </mxCell>
        <mxCell id="tjTPalz4Y8jjselVKnhg-7" value="order" style="rounded=0;whiteSpace=wrap;html=1;" vertex="1" parent="1">
          <mxGeometry x="420" y="30" width="100" height="40" as="geometry" />
        </mxCell>
        <mxCell id="tjTPalz4Y8jjselVKnhg-20" style="edgeStyle=orthogonalEdgeStyle;rounded=0;orthogonalLoop=1;jettySize=auto;html=1;entryX=0.5;entryY=0;entryDx=0;entryDy=0;endArrow=none;endFill=0;exitX=1;exitY=0.5;exitDx=0;exitDy=0;" edge="1" parent="1" source="tjTPalz4Y8jjselVKnhg-8" target="tjTPalz4Y8jjselVKnhg-7">
          <mxGeometry relative="1" as="geometry">
            <mxPoint x="438.8887743412297" y="-10" as="sourcePoint" />
            <Array as="points">
              <mxPoint x="470" y="-35" />
            </Array>
          </mxGeometry>
        </mxCell>
        <mxCell id="tjTPalz4Y8jjselVKnhg-23" style="edgeStyle=orthogonalEdgeStyle;rounded=0;orthogonalLoop=1;jettySize=auto;html=1;endArrow=none;endFill=0;" edge="1" parent="1" source="tjTPalz4Y8jjselVKnhg-9" target="tjTPalz4Y8jjselVKnhg-7">
          <mxGeometry relative="1" as="geometry" />
        </mxCell>
        <mxCell id="tjTPalz4Y8jjselVKnhg-9" value="adressID" style="ellipse;whiteSpace=wrap;html=1;" vertex="1" parent="1">
          <mxGeometry x="415" y="-130" width="110" height="50" as="geometry" />
        </mxCell>
        <mxCell id="tjTPalz4Y8jjselVKnhg-24" style="edgeStyle=orthogonalEdgeStyle;rounded=0;orthogonalLoop=1;jettySize=auto;html=1;entryX=0.5;entryY=0;entryDx=0;entryDy=0;endArrow=none;endFill=0;" edge="1" parent="1" source="tjTPalz4Y8jjselVKnhg-10" target="tjTPalz4Y8jjselVKnhg-7">
          <mxGeometry relative="1" as="geometry" />
        </mxCell>
        <mxCell id="tjTPalz4Y8jjselVKnhg-10" value="userId" style="ellipse;whiteSpace=wrap;html=1;" vertex="1" parent="1">
          <mxGeometry x="470" y="-100" width="110" height="50" as="geometry" />
        </mxCell>
        <mxCell id="tjTPalz4Y8jjselVKnhg-22" style="edgeStyle=orthogonalEdgeStyle;rounded=0;orthogonalLoop=1;jettySize=auto;html=1;entryX=0.5;entryY=0;entryDx=0;entryDy=0;endArrow=none;endFill=0;" edge="1" parent="1" source="tjTPalz4Y8jjselVKnhg-11" target="tjTPalz4Y8jjselVKnhg-7">
          <mxGeometry relative="1" as="geometry">
            <Array as="points">
              <mxPoint x="470" y="-20" />
              <mxPoint x="470" y="-20" />
            </Array>
          </mxGeometry>
        </mxCell>
        <mxCell id="tjTPalz4Y8jjselVKnhg-11" value="amount" style="ellipse;whiteSpace=wrap;html=1;" vertex="1" parent="1">
          <mxGeometry x="370" y="-95" width="110" height="50" as="geometry" />
        </mxCell>
        <mxCell id="tjTPalz4Y8jjselVKnhg-21" style="edgeStyle=orthogonalEdgeStyle;rounded=0;orthogonalLoop=1;jettySize=auto;html=1;entryX=0.5;entryY=0;entryDx=0;entryDy=0;endArrow=none;endFill=0;exitX=0;exitY=0.5;exitDx=0;exitDy=0;" edge="1" parent="1" source="tjTPalz4Y8jjselVKnhg-12" target="tjTPalz4Y8jjselVKnhg-7">
          <mxGeometry relative="1" as="geometry">
            <mxPoint x="560.0000000000005" y="125" as="sourcePoint" />
            <mxPoint x="535" y="185" as="targetPoint" />
          </mxGeometry>
        </mxCell>
        <mxCell id="tjTPalz4Y8jjselVKnhg-12" value="orderDate" style="ellipse;whiteSpace=wrap;html=1;" vertex="1" parent="1">
          <mxGeometry x="490" y="-60" width="110" height="50" as="geometry" />
        </mxCell>
        <mxCell id="tjTPalz4Y8jjselVKnhg-32" style="edgeStyle=orthogonalEdgeStyle;rounded=0;orthogonalLoop=1;jettySize=auto;html=1;entryX=0;entryY=0.5;entryDx=0;entryDy=0;endArrow=ERmandOne;endFill=0;startArrow=ERoneToMany;startFill=0;" edge="1" parent="1" source="tjTPalz4Y8jjselVKnhg-13" target="tjTPalz4Y8jjselVKnhg-30">
          <mxGeometry relative="1" as="geometry" />
        </mxCell>
        <mxCell id="tjTPalz4Y8jjselVKnhg-13" value="OrderDetails" style="rounded=0;whiteSpace=wrap;html=1;" vertex="1" parent="1">
          <mxGeometry x="120" y="-210" width="100" height="40" as="geometry" />
        </mxCell>
        <mxCell id="tjTPalz4Y8jjselVKnhg-28" style="edgeStyle=orthogonalEdgeStyle;rounded=0;orthogonalLoop=1;jettySize=auto;html=1;entryX=0;entryY=0.5;entryDx=0;entryDy=0;endArrow=none;endFill=0;" edge="1" parent="1" source="tjTPalz4Y8jjselVKnhg-14" target="tjTPalz4Y8jjselVKnhg-13">
          <mxGeometry relative="1" as="geometry">
            <mxPoint x="170" y="-130" as="targetPoint" />
          </mxGeometry>
        </mxCell>
        <mxCell id="tjTPalz4Y8jjselVKnhg-14" value="orderDetailID" style="ellipse;whiteSpace=wrap;html=1;" vertex="1" parent="1">
          <mxGeometry x="-60" y="-195" width="110" height="50" as="geometry" />
        </mxCell>
        <mxCell id="tjTPalz4Y8jjselVKnhg-26" style="edgeStyle=orthogonalEdgeStyle;rounded=0;orthogonalLoop=1;jettySize=auto;html=1;entryX=0.5;entryY=0;entryDx=0;entryDy=0;endArrow=none;endFill=0;" edge="1" parent="1" source="tjTPalz4Y8jjselVKnhg-15" target="tjTPalz4Y8jjselVKnhg-13">
          <mxGeometry relative="1" as="geometry" />
        </mxCell>
        <mxCell id="tjTPalz4Y8jjselVKnhg-15" value="productId" style="ellipse;whiteSpace=wrap;html=1;" vertex="1" parent="1">
          <mxGeometry x="-50" y="-300" width="110" height="50" as="geometry" />
        </mxCell>
        <mxCell id="tjTPalz4Y8jjselVKnhg-25" style="edgeStyle=orthogonalEdgeStyle;rounded=0;orthogonalLoop=1;jettySize=auto;html=1;endArrow=none;endFill=0;" edge="1" parent="1" source="tjTPalz4Y8jjselVKnhg-16" target="tjTPalz4Y8jjselVKnhg-13">
          <mxGeometry relative="1" as="geometry" />
        </mxCell>
        <mxCell id="tjTPalz4Y8jjselVKnhg-16" value="quantity" style="ellipse;whiteSpace=wrap;html=1;" vertex="1" parent="1">
          <mxGeometry x="40" y="-340" width="110" height="50" as="geometry" />
        </mxCell>
        <mxCell id="tjTPalz4Y8jjselVKnhg-27" style="edgeStyle=orthogonalEdgeStyle;rounded=0;orthogonalLoop=1;jettySize=auto;html=1;entryX=0.5;entryY=0;entryDx=0;entryDy=0;endArrow=none;endFill=0;" edge="1" parent="1" source="tjTPalz4Y8jjselVKnhg-17" target="tjTPalz4Y8jjselVKnhg-13">
          <mxGeometry relative="1" as="geometry">
            <mxPoint x="150" y="-150" as="targetPoint" />
          </mxGeometry>
        </mxCell>
        <mxCell id="tjTPalz4Y8jjselVKnhg-17" value="unitPrice" style="ellipse;whiteSpace=wrap;html=1;" vertex="1" parent="1">
          <mxGeometry x="-50" y="-240" width="110" height="50" as="geometry" />
        </mxCell>
        <mxCell id="tjTPalz4Y8jjselVKnhg-29" style="edgeStyle=orthogonalEdgeStyle;rounded=0;orthogonalLoop=1;jettySize=auto;html=1;entryX=0;entryY=0.5;entryDx=0;entryDy=0;endArrow=none;endFill=0;" edge="1" parent="1" source="tjTPalz4Y8jjselVKnhg-18" target="tjTPalz4Y8jjselVKnhg-13">
          <mxGeometry relative="1" as="geometry" />
        </mxCell>
        <mxCell id="tjTPalz4Y8jjselVKnhg-18" value="orderId" style="ellipse;whiteSpace=wrap;html=1;" vertex="1" parent="1">
          <mxGeometry x="-30" y="-145" width="110" height="50" as="geometry" />
        </mxCell>
        <mxCell id="tjTPalz4Y8jjselVKnhg-30" value="Have" style="rhombus;whiteSpace=wrap;html=1;" vertex="1" parent="1">
          <mxGeometry x="197" y="-70" width="103" height="40" as="geometry" />
        </mxCell>
        <mxCell id="tjTPalz4Y8jjselVKnhg-34" style="edgeStyle=orthogonalEdgeStyle;rounded=0;orthogonalLoop=1;jettySize=auto;html=1;entryX=1;entryY=0.5;entryDx=0;entryDy=0;endArrow=ERmandOne;endFill=0;startArrow=ERoneToMany;startFill=0;" edge="1" parent="1" source="d7jLBemJhKZGt51rczIr-3" target="tjTPalz4Y8jjselVKnhg-36">
          <mxGeometry relative="1" as="geometry">
            <mxPoint x="908.0000000000005" y="135" as="sourcePoint" />
            <mxPoint x="896.0000000000005" y="-190" as="targetPoint" />
            <Array as="points">
              <mxPoint x="908" y="-17" />
              <mxPoint x="906" y="-17" />
              <mxPoint x="906" y="-190" />
            </Array>
          </mxGeometry>
        </mxCell>
        <mxCell id="tjTPalz4Y8jjselVKnhg-35" style="edgeStyle=orthogonalEdgeStyle;rounded=0;orthogonalLoop=1;jettySize=auto;html=1;entryX=1;entryY=0.5;entryDx=0;entryDy=0;endArrow=ERmandOne;endFill=0;startArrow=ERoneToMany;startFill=0;exitX=0;exitY=0.5;exitDx=0;exitDy=0;" edge="1" parent="1" source="tjTPalz4Y8jjselVKnhg-36" target="tjTPalz4Y8jjselVKnhg-13">
          <mxGeometry relative="1" as="geometry">
            <mxPoint x="260" y="-310" as="targetPoint" />
            <Array as="points" />
            <mxPoint x="1010.0000000000005" y="-400" as="sourcePoint" />
          </mxGeometry>
        </mxCell>
        <mxCell id="tjTPalz4Y8jjselVKnhg-36" value="Have" style="rhombus;whiteSpace=wrap;html=1;" vertex="1" parent="1">
          <mxGeometry x="650" y="-210" width="103" height="40" as="geometry" />
        </mxCell>
        <mxCell id="tjTPalz4Y8jjselVKnhg-43" style="edgeStyle=orthogonalEdgeStyle;rounded=0;orthogonalLoop=1;jettySize=auto;html=1;entryX=0.5;entryY=0;entryDx=0;entryDy=0;endArrow=none;endFill=0;" edge="1" parent="1" source="tjTPalz4Y8jjselVKnhg-42" target="tjTPalz4Y8jjselVKnhg-7">
          <mxGeometry relative="1" as="geometry">
            <Array as="points">
              <mxPoint x="470" y="15" />
            </Array>
          </mxGeometry>
        </mxCell>
        <mxCell id="tjTPalz4Y8jjselVKnhg-42" value="paymentId" style="ellipse;whiteSpace=wrap;html=1;" vertex="1" parent="1">
          <mxGeometry x="535" y="-10" width="110" height="50" as="geometry" />
        </mxCell>
        <mxCell id="tjTPalz4Y8jjselVKnhg-44" value="" style="edgeStyle=orthogonalEdgeStyle;rounded=0;orthogonalLoop=1;jettySize=auto;html=1;entryX=0;entryY=0.25;entryDx=0;entryDy=0;endArrow=ERmandOne;endFill=0;startArrow=ERoneToMany;startFill=0;" edge="1" parent="1" source="tjTPalz4Y8jjselVKnhg-30" target="tjTPalz4Y8jjselVKnhg-7">
          <mxGeometry relative="1" as="geometry">
            <mxPoint x="302" y="-30" as="sourcePoint" />
            <mxPoint x="420" y="60" as="targetPoint" />
            <Array as="points">
              <mxPoint x="250" y="40" />
            </Array>
          </mxGeometry>
        </mxCell>
        <mxCell id="tjTPalz4Y8jjselVKnhg-8" value="orderID" style="ellipse;whiteSpace=wrap;html=1;" vertex="1" parent="1">
          <mxGeometry x="340" y="-60" width="110" height="50" as="geometry" />
        </mxCell>
        <mxCell id="tjTPalz4Y8jjselVKnhg-47" style="edgeStyle=orthogonalEdgeStyle;rounded=0;orthogonalLoop=1;jettySize=auto;html=1;entryX=0.75;entryY=0;entryDx=0;entryDy=0;endArrow=ERmandOne;endFill=0;startArrow=ERzeroToMany;startFill=0;" edge="1" parent="1" source="tjTPalz4Y8jjselVKnhg-46" target="d7jLBemJhKZGt51rczIr-5">
          <mxGeometry relative="1" as="geometry" />
        </mxCell>
        <mxCell id="tjTPalz4Y8jjselVKnhg-48" style="edgeStyle=orthogonalEdgeStyle;rounded=0;orthogonalLoop=1;jettySize=auto;html=1;entryX=1;entryY=0.5;entryDx=0;entryDy=0;endArrow=ERzeroToMany;endFill=0;startArrow=ERmandOne;startFill=0;" edge="1" parent="1" source="tjTPalz4Y8jjselVKnhg-46" target="tjTPalz4Y8jjselVKnhg-7">
          <mxGeometry relative="1" as="geometry" />
        </mxCell>
        <mxCell id="tjTPalz4Y8jjselVKnhg-46" value="Have" style="rhombus;whiteSpace=wrap;html=1;" vertex="1" parent="1">
          <mxGeometry x="580" y="135" width="103" height="40" as="geometry" />
        </mxCell>
        <mxCell id="tjTPalz4Y8jjselVKnhg-49" style="edgeStyle=orthogonalEdgeStyle;rounded=0;orthogonalLoop=1;jettySize=auto;html=1;entryX=1;entryY=0.25;entryDx=0;entryDy=0;endArrow=ERmandOne;endFill=0;startArrow=ERzeroToMany;startFill=0;" edge="1" parent="1" source="tjTPalz4Y8jjselVKnhg-51" target="d7jLBemJhKZGt51rczIr-1">
          <mxGeometry relative="1" as="geometry">
            <mxPoint x="810" y="490" as="targetPoint" />
          </mxGeometry>
        </mxCell>
        <mxCell id="tjTPalz4Y8jjselVKnhg-50" style="edgeStyle=orthogonalEdgeStyle;rounded=0;orthogonalLoop=1;jettySize=auto;html=1;entryX=0.5;entryY=1;entryDx=0;entryDy=0;endArrow=ERzeroToMany;endFill=0;startArrow=ERmandOne;startFill=0;exitX=0.5;exitY=0;exitDx=0;exitDy=0;" edge="1" parent="1" source="tjTPalz4Y8jjselVKnhg-51" target="tjTPalz4Y8jjselVKnhg-7">
          <mxGeometry relative="1" as="geometry">
            <mxPoint x="720" y="180" as="targetPoint" />
          </mxGeometry>
        </mxCell>
        <mxCell id="tjTPalz4Y8jjselVKnhg-51" value="Have" style="rhombus;whiteSpace=wrap;html=1;" vertex="1" parent="1">
          <mxGeometry x="419" y="151" width="103" height="40" as="geometry" />
        </mxCell>
        <mxCell id="tjTPalz4Y8jjselVKnhg-59" style="edgeStyle=orthogonalEdgeStyle;rounded=0;orthogonalLoop=1;jettySize=auto;html=1;entryX=1;entryY=0.5;entryDx=0;entryDy=0;endArrow=none;endFill=0;" edge="1" parent="1" source="tjTPalz4Y8jjselVKnhg-52" target="d7jLBemJhKZGt51rczIr-3">
          <mxGeometry relative="1" as="geometry" />
        </mxCell>
        <mxCell id="tjTPalz4Y8jjselVKnhg-52" value="stockQuantity" style="ellipse;whiteSpace=wrap;html=1;" vertex="1" parent="1">
          <mxGeometry x="1083" y="145" width="110" height="50" as="geometry" />
        </mxCell>
        <mxCell id="wUvY-wP0sRyieCnbG_YS-1" style="edgeStyle=orthogonalEdgeStyle;rounded=0;orthogonalLoop=1;jettySize=auto;html=1;entryX=1;entryY=1;entryDx=0;entryDy=0;endArrow=none;endFill=0;" edge="1" parent="1" source="T5XCl1_g-WvbPhnP2FNh-1" target="d7jLBemJhKZGt51rczIr-7">
          <mxGeometry relative="1" as="geometry" />
        </mxCell>
        <mxCell id="T5XCl1_g-WvbPhnP2FNh-1" value="image" style="ellipse;whiteSpace=wrap;html=1;" vertex="1" parent="1">
          <mxGeometry x="1128" y="-80" width="110" height="50" as="geometry" />
        </mxCell>
        <mxCell id="wUvY-wP0sRyieCnbG_YS-5" style="edgeStyle=orthogonalEdgeStyle;rounded=0;orthogonalLoop=1;jettySize=auto;html=1;entryX=1;entryY=0.5;entryDx=0;entryDy=0;endArrow=none;endFill=0;" edge="1" parent="1" source="wUvY-wP0sRyieCnbG_YS-4" target="d7jLBemJhKZGt51rczIr-7">
          <mxGeometry relative="1" as="geometry" />
        </mxCell>
        <mxCell id="wUvY-wP0sRyieCnbG_YS-4" value="description" style="ellipse;whiteSpace=wrap;html=1;" vertex="1" parent="1">
          <mxGeometry x="1133" y="-200" width="110" height="50" as="geometry" />
        </mxCell>
        <mxCell id="wUvY-wP0sRyieCnbG_YS-11" value="description" style="ellipse;whiteSpace=wrap;html=1;" vertex="1" parent="1">
          <mxGeometry x="535" y="480" width="110" height="50" as="geometry" />
        </mxCell>
        <mxCell id="wUvY-wP0sRyieCnbG_YS-15" value="" style="fontSize=12;html=1;endArrow=ERzeroToMany;endFill=1;rounded=0;exitX=0.352;exitY=1.093;exitDx=0;exitDy=0;entryX=0.5;entryY=0;entryDx=0;entryDy=0;startArrow=ERmandOne;startFill=0;exitPerimeter=0;" edge="1" parent="1" source="d7jLBemJhKZGt51rczIr-1" target="wUvY-wP0sRyieCnbG_YS-14">
          <mxGeometry width="100" height="100" relative="1" as="geometry">
            <mxPoint x="250" y="115" as="sourcePoint" />
            <mxPoint x="208.5" y="220" as="targetPoint" />
            <Array as="points" />
          </mxGeometry>
        </mxCell>
        <mxCell id="wUvY-wP0sRyieCnbG_YS-14" value="Have" style="rhombus;whiteSpace=wrap;html=1;" vertex="1" parent="1">
          <mxGeometry x="-300" y="215" width="103" height="40" as="geometry" />
        </mxCell>
        <mxCell id="nzNf29XOqBKROtPsoa88-13" value="brand" style="rounded=0;whiteSpace=wrap;html=1;" vertex="1" parent="1">
          <mxGeometry x="1186" y="400" width="100" height="40" as="geometry" />
        </mxCell>
        <mxCell id="nzNf29XOqBKROtPsoa88-14" style="edgeStyle=orthogonalEdgeStyle;rounded=0;orthogonalLoop=1;jettySize=auto;html=1;endArrow=none;endFill=0;" edge="1" parent="1" source="nzNf29XOqBKROtPsoa88-15" target="nzNf29XOqBKROtPsoa88-13">
          <mxGeometry relative="1" as="geometry" />
        </mxCell>
        <mxCell id="nzNf29XOqBKROtPsoa88-15" value="brandName" style="ellipse;whiteSpace=wrap;html=1;" vertex="1" parent="1">
          <mxGeometry x="1296" y="325" width="110" height="50" as="geometry" />
        </mxCell>
        <mxCell id="nzNf29XOqBKROtPsoa88-16" style="edgeStyle=orthogonalEdgeStyle;rounded=0;orthogonalLoop=1;jettySize=auto;html=1;entryX=0.5;entryY=0;entryDx=0;entryDy=0;endArrow=none;endFill=0;" edge="1" parent="1" source="nzNf29XOqBKROtPsoa88-17" target="nzNf29XOqBKROtPsoa88-13">
          <mxGeometry relative="1" as="geometry" />
        </mxCell>
        <mxCell id="nzNf29XOqBKROtPsoa88-17" value="brandLogo" style="ellipse;whiteSpace=wrap;html=1;" vertex="1" parent="1">
          <mxGeometry x="1117" y="260" width="110" height="50" as="geometry" />
        </mxCell>
        <mxCell id="nzNf29XOqBKROtPsoa88-18" style="edgeStyle=orthogonalEdgeStyle;rounded=0;orthogonalLoop=1;jettySize=auto;html=1;entryX=0.5;entryY=0;entryDx=0;entryDy=0;endArrow=none;endFill=0;" edge="1" parent="1" source="nzNf29XOqBKROtPsoa88-19" target="nzNf29XOqBKROtPsoa88-13">
          <mxGeometry relative="1" as="geometry" />
        </mxCell>
        <mxCell id="nzNf29XOqBKROtPsoa88-19" value="description" style="ellipse;whiteSpace=wrap;html=1;" vertex="1" parent="1">
          <mxGeometry x="1301" y="260" width="110" height="50" as="geometry" />
        </mxCell>
        <mxCell id="nzNf29XOqBKROtPsoa88-20" style="edgeStyle=orthogonalEdgeStyle;rounded=0;orthogonalLoop=1;jettySize=auto;html=1;endArrow=none;endFill=0;" edge="1" parent="1" source="nzNf29XOqBKROtPsoa88-21" target="nzNf29XOqBKROtPsoa88-13">
          <mxGeometry relative="1" as="geometry" />
        </mxCell>
        <mxCell id="nzNf29XOqBKROtPsoa88-21" value="brandID" style="ellipse;whiteSpace=wrap;html=1;fontStyle=4" vertex="1" parent="1">
          <mxGeometry x="1040" y="310" width="110" height="50" as="geometry" />
        </mxCell>
        <mxCell id="nzNf29XOqBKROtPsoa88-22" style="edgeStyle=orthogonalEdgeStyle;rounded=0;orthogonalLoop=1;jettySize=auto;html=1;entryX=0.828;entryY=1.064;entryDx=0;entryDy=0;entryPerimeter=0;startArrow=ERoneToMany;startFill=0;endArrow=ERmandOne;endFill=0;" edge="1" parent="1" source="nzNf29XOqBKROtPsoa88-23" target="d7jLBemJhKZGt51rczIr-3">
          <mxGeometry relative="1" as="geometry" />
        </mxCell>
        <mxCell id="nzNf29XOqBKROtPsoa88-24" value="" style="edgeStyle=orthogonalEdgeStyle;rounded=0;orthogonalLoop=1;jettySize=auto;html=1;entryX=1;entryY=0.5;entryDx=0;entryDy=0;startArrow=ERoneToMany;startFill=0;endArrow=ERmandOne;endFill=0;" edge="1" parent="1" source="nzNf29XOqBKROtPsoa88-13" target="nzNf29XOqBKROtPsoa88-23">
          <mxGeometry relative="1" as="geometry">
            <mxPoint x="1186" y="420" as="sourcePoint" />
            <mxPoint x="899" y="193" as="targetPoint" />
          </mxGeometry>
        </mxCell>
        <mxCell id="nzNf29XOqBKROtPsoa88-23" value="Have" style="rhombus;whiteSpace=wrap;html=1;" vertex="1" parent="1">
          <mxGeometry x="960" y="400" width="103" height="40" as="geometry" />
        </mxCell>
        <mxCell id="nzNf29XOqBKROtPsoa88-72" style="edgeStyle=orthogonalEdgeStyle;rounded=0;orthogonalLoop=1;jettySize=auto;html=1;entryX=0.25;entryY=1;entryDx=0;entryDy=0;endArrow=ERmandOne;endFill=0;startArrow=ERzeroToOne;startFill=0;exitX=0.5;exitY=0;exitDx=0;exitDy=0;" edge="1" parent="1" source="nzNf29XOqBKROtPsoa88-73" target="d7jLBemJhKZGt51rczIr-3">
          <mxGeometry relative="1" as="geometry">
            <mxPoint x="798.5999999999999" y="260.03883495145647" as="sourcePoint" />
          </mxGeometry>
        </mxCell>
        <mxCell id="nzNf29XOqBKROtPsoa88-26" value="productDiscounts" style="rounded=0;whiteSpace=wrap;html=1;" vertex="1" parent="1">
          <mxGeometry x="780" y="350" width="100" height="40" as="geometry" />
        </mxCell>
        <mxCell id="nzNf29XOqBKROtPsoa88-34" style="edgeStyle=orthogonalEdgeStyle;rounded=0;orthogonalLoop=1;jettySize=auto;html=1;endArrow=none;endFill=0;" edge="1" parent="1" source="nzNf29XOqBKROtPsoa88-28" target="nzNf29XOqBKROtPsoa88-26">
          <mxGeometry relative="1" as="geometry" />
        </mxCell>
        <mxCell id="nzNf29XOqBKROtPsoa88-28" value="discountEnd" style="ellipse;whiteSpace=wrap;html=1;" vertex="1" parent="1">
          <mxGeometry x="690" y="570" width="110" height="50" as="geometry" />
        </mxCell>
        <mxCell id="nzNf29XOqBKROtPsoa88-33" style="edgeStyle=orthogonalEdgeStyle;rounded=0;orthogonalLoop=1;jettySize=auto;html=1;entryX=0.5;entryY=1;entryDx=0;entryDy=0;endArrow=none;endFill=0;" edge="1" parent="1" source="nzNf29XOqBKROtPsoa88-29" target="nzNf29XOqBKROtPsoa88-26">
          <mxGeometry relative="1" as="geometry">
            <mxPoint x="799" y="440" as="targetPoint" />
          </mxGeometry>
        </mxCell>
        <mxCell id="nzNf29XOqBKROtPsoa88-29" value="discountStart" style="ellipse;whiteSpace=wrap;html=1;" vertex="1" parent="1">
          <mxGeometry x="807" y="570" width="110" height="50" as="geometry" />
        </mxCell>
        <mxCell id="nzNf29XOqBKROtPsoa88-35" style="edgeStyle=orthogonalEdgeStyle;rounded=0;orthogonalLoop=1;jettySize=auto;html=1;endArrow=none;endFill=0;exitX=0.5;exitY=0;exitDx=0;exitDy=0;" edge="1" parent="1" source="nzNf29XOqBKROtPsoa88-30" target="nzNf29XOqBKROtPsoa88-26">
          <mxGeometry relative="1" as="geometry">
            <mxPoint x="810" y="525" as="sourcePoint" />
          </mxGeometry>
        </mxCell>
        <mxCell id="nzNf29XOqBKROtPsoa88-30" value="productDiscountID" style="ellipse;whiteSpace=wrap;html=1;fontStyle=4" vertex="1" parent="1">
          <mxGeometry x="670" y="500" width="110" height="50" as="geometry" />
        </mxCell>
        <mxCell id="nzNf29XOqBKROtPsoa88-36" style="edgeStyle=orthogonalEdgeStyle;rounded=0;orthogonalLoop=1;jettySize=auto;html=1;endArrow=none;endFill=0;entryX=0.5;entryY=1;entryDx=0;entryDy=0;" edge="1" parent="1" source="nzNf29XOqBKROtPsoa88-31" target="nzNf29XOqBKROtPsoa88-26">
          <mxGeometry relative="1" as="geometry">
            <mxPoint x="799" y="440" as="targetPoint" />
          </mxGeometry>
        </mxCell>
        <mxCell id="nzNf29XOqBKROtPsoa88-31" value="discountPercent" style="ellipse;whiteSpace=wrap;html=1;" vertex="1" parent="1">
          <mxGeometry x="850" y="500" width="110" height="50" as="geometry" />
        </mxCell>
        <mxCell id="nzNf29XOqBKROtPsoa88-54" style="edgeStyle=orthogonalEdgeStyle;rounded=0;orthogonalLoop=1;jettySize=auto;html=1;entryX=1;entryY=0;entryDx=0;entryDy=0;endArrow=none;endFill=0;" edge="1" parent="1" source="nzNf29XOqBKROtPsoa88-59" target="nzNf29XOqBKROtPsoa88-63">
          <mxGeometry relative="1" as="geometry" />
        </mxCell>
        <mxCell id="nzNf29XOqBKROtPsoa88-55" style="edgeStyle=orthogonalEdgeStyle;rounded=0;orthogonalLoop=1;jettySize=auto;html=1;entryX=0;entryY=0;entryDx=0;entryDy=0;endArrow=none;endFill=0;" edge="1" parent="1" source="nzNf29XOqBKROtPsoa88-59" target="nzNf29XOqBKROtPsoa88-62">
          <mxGeometry relative="1" as="geometry" />
        </mxCell>
        <mxCell id="nzNf29XOqBKROtPsoa88-56" style="edgeStyle=orthogonalEdgeStyle;rounded=0;orthogonalLoop=1;jettySize=auto;html=1;entryX=1;entryY=0;entryDx=0;entryDy=0;endArrow=none;endFill=0;" edge="1" parent="1" source="nzNf29XOqBKROtPsoa88-59" target="nzNf29XOqBKROtPsoa88-60">
          <mxGeometry relative="1" as="geometry" />
        </mxCell>
        <mxCell id="nzNf29XOqBKROtPsoa88-57" style="edgeStyle=orthogonalEdgeStyle;rounded=0;orthogonalLoop=1;jettySize=auto;html=1;entryX=0;entryY=0;entryDx=0;entryDy=0;endArrow=none;endFill=0;" edge="1" parent="1" source="nzNf29XOqBKROtPsoa88-59" target="nzNf29XOqBKROtPsoa88-61">
          <mxGeometry relative="1" as="geometry" />
        </mxCell>
        <mxCell id="nzNf29XOqBKROtPsoa88-58" style="edgeStyle=orthogonalEdgeStyle;rounded=0;orthogonalLoop=1;jettySize=auto;html=1;entryX=0.5;entryY=0;entryDx=0;entryDy=0;endArrow=none;endFill=0;" edge="1" parent="1" source="nzNf29XOqBKROtPsoa88-59" target="nzNf29XOqBKROtPsoa88-64">
          <mxGeometry relative="1" as="geometry" />
        </mxCell>
        <mxCell id="nzNf29XOqBKROtPsoa88-59" value="Reviews" style="rounded=0;whiteSpace=wrap;html=1;" vertex="1" parent="1">
          <mxGeometry x="467" y="-520" width="100" height="40" as="geometry" />
        </mxCell>
        <mxCell id="nzNf29XOqBKROtPsoa88-60" value="reviewID" style="ellipse;whiteSpace=wrap;html=1;" vertex="1" parent="1">
          <mxGeometry x="490" y="-640" width="110" height="50" as="geometry" />
        </mxCell>
        <mxCell id="nzNf29XOqBKROtPsoa88-61" value="orderDetailID" style="ellipse;whiteSpace=wrap;html=1;" vertex="1" parent="1">
          <mxGeometry x="604" y="-540" width="110" height="50" as="geometry" />
        </mxCell>
        <mxCell id="nzNf29XOqBKROtPsoa88-62" value="image" style="ellipse;whiteSpace=wrap;html=1;" vertex="1" parent="1">
          <mxGeometry x="469" y="-600" width="110" height="50" as="geometry" />
        </mxCell>
        <mxCell id="nzNf29XOqBKROtPsoa88-63" value="content" style="ellipse;whiteSpace=wrap;html=1;" vertex="1" parent="1">
          <mxGeometry x="370" y="-640" width="110" height="50" as="geometry" />
        </mxCell>
        <mxCell id="nzNf29XOqBKROtPsoa88-64" value="rating" style="ellipse;whiteSpace=wrap;html=1;" vertex="1" parent="1">
          <mxGeometry x="600" y="-590" width="118" height="50" as="geometry" />
        </mxCell>
        <mxCell id="nzNf29XOqBKROtPsoa88-65" value="" style="fontSize=12;html=1;endArrow=ERzeroToOne;startArrow=ERmandOne;rounded=0;entryX=0;entryY=0.5;entryDx=0;entryDy=0;exitX=0.75;exitY=0;exitDx=0;exitDy=0;edgeStyle=orthogonalEdgeStyle;endFill=0;" edge="1" parent="1" source="tjTPalz4Y8jjselVKnhg-13" target="nzNf29XOqBKROtPsoa88-67">
          <mxGeometry width="100" height="100" relative="1" as="geometry">
            <mxPoint x="-89" y="40" as="sourcePoint" />
            <mxPoint x="-48" y="-14" as="targetPoint" />
          </mxGeometry>
        </mxCell>
        <mxCell id="nzNf29XOqBKROtPsoa88-66" style="edgeStyle=orthogonalEdgeStyle;rounded=0;orthogonalLoop=1;jettySize=auto;html=1;endArrow=ERzeroToOne;endFill=0;startArrow=ERmandOne;startFill=0;" edge="1" parent="1" source="nzNf29XOqBKROtPsoa88-67" target="nzNf29XOqBKROtPsoa88-59">
          <mxGeometry relative="1" as="geometry" />
        </mxCell>
        <mxCell id="nzNf29XOqBKROtPsoa88-67" value="Have" style="rhombus;whiteSpace=wrap;html=1;" vertex="1" parent="1">
          <mxGeometry x="337" y="-295" width="103" height="40" as="geometry" />
        </mxCell>
        <mxCell id="nzNf29XOqBKROtPsoa88-68" style="edgeStyle=orthogonalEdgeStyle;rounded=0;orthogonalLoop=1;jettySize=auto;html=1;entryX=0;entryY=0.5;entryDx=0;entryDy=0;endArrow=none;endFill=0;" edge="1" parent="1" source="nzNf29XOqBKROtPsoa88-69" target="nzNf29XOqBKROtPsoa88-59">
          <mxGeometry relative="1" as="geometry" />
        </mxCell>
        <mxCell id="nzNf29XOqBKROtPsoa88-69" value="userId" style="ellipse;whiteSpace=wrap;html=1;" vertex="1" parent="1">
          <mxGeometry x="317" y="-570" width="110" height="50" as="geometry" />
        </mxCell>
        <mxCell id="nzNf29XOqBKROtPsoa88-70" style="edgeStyle=orthogonalEdgeStyle;rounded=0;orthogonalLoop=1;jettySize=auto;html=1;entryX=0;entryY=0.5;entryDx=0;entryDy=0;endArrow=none;endFill=0;" edge="1" parent="1" source="nzNf29XOqBKROtPsoa88-71" target="nzNf29XOqBKROtPsoa88-59">
          <mxGeometry relative="1" as="geometry" />
        </mxCell>
        <mxCell id="nzNf29XOqBKROtPsoa88-71" value="createAt" style="ellipse;whiteSpace=wrap;html=1;" vertex="1" parent="1">
          <mxGeometry x="337" y="-500" width="110" height="50" as="geometry" />
        </mxCell>
        <mxCell id="nzNf29XOqBKROtPsoa88-74" value="" style="edgeStyle=orthogonalEdgeStyle;rounded=0;orthogonalLoop=1;jettySize=auto;html=1;entryX=0.5;entryY=1;entryDx=0;entryDy=0;endArrow=ERmandOne;endFill=0;startArrow=ERzeroToOne;startFill=0;exitX=0.5;exitY=0;exitDx=0;exitDy=0;" edge="1" parent="1" source="nzNf29XOqBKROtPsoa88-26" target="nzNf29XOqBKROtPsoa88-73">
          <mxGeometry relative="1" as="geometry">
            <mxPoint x="799" y="400" as="sourcePoint" />
            <mxPoint x="798.5" y="300" as="targetPoint" />
          </mxGeometry>
        </mxCell>
        <mxCell id="nzNf29XOqBKROtPsoa88-73" value="Have" style="rhombus;whiteSpace=wrap;html=1;" vertex="1" parent="1">
          <mxGeometry x="777" y="255" width="103" height="40" as="geometry" />
        </mxCell>
        <mxCell id="nzNf29XOqBKROtPsoa88-84" style="edgeStyle=orthogonalEdgeStyle;rounded=0;orthogonalLoop=1;jettySize=auto;html=1;entryX=0.5;entryY=0;entryDx=0;entryDy=0;endArrow=none;endFill=0;" edge="1" parent="1" source="nzNf29XOqBKROtPsoa88-77" target="d7jLBemJhKZGt51rczIr-1">
          <mxGeometry relative="1" as="geometry">
            <mxPoint x="-120" y="10" as="targetPoint" />
          </mxGeometry>
        </mxCell>
        <mxCell id="nzNf29XOqBKROtPsoa88-77" value="avatar" style="ellipse;whiteSpace=wrap;html=1;" vertex="1" parent="1">
          <mxGeometry x="-276.5" y="-115" width="110" height="50" as="geometry" />
        </mxCell>
        <mxCell id="nzNf29XOqBKROtPsoa88-78" value="createAt" style="ellipse;whiteSpace=wrap;html=1;" vertex="1" parent="1">
          <mxGeometry x="-370" y="-85" width="110" height="50" as="geometry" />
        </mxCell>
        <mxCell id="nzNf29XOqBKROtPsoa88-86" style="edgeStyle=orthogonalEdgeStyle;rounded=0;orthogonalLoop=1;jettySize=auto;html=1;endArrow=none;endFill=0;" edge="1" parent="1" source="nzNf29XOqBKROtPsoa88-79" target="d7jLBemJhKZGt51rczIr-1">
          <mxGeometry relative="1" as="geometry">
            <mxPoint x="-120" y="10" as="targetPoint" />
          </mxGeometry>
        </mxCell>
        <mxCell id="nzNf29XOqBKROtPsoa88-79" value="email" style="ellipse;whiteSpace=wrap;html=1;" vertex="1" parent="1">
          <mxGeometry x="-370" y="-35" width="110" height="50" as="geometry" />
        </mxCell>
        <mxCell id="nzNf29XOqBKROtPsoa88-87" style="edgeStyle=orthogonalEdgeStyle;rounded=0;orthogonalLoop=1;jettySize=auto;html=1;entryX=0.5;entryY=0;entryDx=0;entryDy=0;endArrow=none;endFill=0;" edge="1" parent="1" source="nzNf29XOqBKROtPsoa88-80" target="d7jLBemJhKZGt51rczIr-1">
          <mxGeometry relative="1" as="geometry">
            <mxPoint x="-120" y="10" as="targetPoint" />
          </mxGeometry>
        </mxCell>
        <mxCell id="nzNf29XOqBKROtPsoa88-80" value="fullname" style="ellipse;whiteSpace=wrap;html=1;" vertex="1" parent="1">
          <mxGeometry x="-300" width="110" height="50" as="geometry" />
        </mxCell>
        <mxCell id="nzNf29XOqBKROtPsoa88-90" style="edgeStyle=orthogonalEdgeStyle;rounded=0;orthogonalLoop=1;jettySize=auto;html=1;entryX=0.5;entryY=0;entryDx=0;entryDy=0;endArrow=none;endFill=0;" edge="1" parent="1" source="nzNf29XOqBKROtPsoa88-81" target="d7jLBemJhKZGt51rczIr-1">
          <mxGeometry relative="1" as="geometry">
            <mxPoint x="-120" y="10" as="targetPoint" />
          </mxGeometry>
        </mxCell>
        <mxCell id="nzNf29XOqBKROtPsoa88-81" value="role" style="ellipse;whiteSpace=wrap;html=1;" vertex="1" parent="1">
          <mxGeometry x="-370" y="50" width="110" height="50" as="geometry" />
        </mxCell>
        <mxCell id="nzNf29XOqBKROtPsoa88-91" style="edgeStyle=orthogonalEdgeStyle;rounded=0;orthogonalLoop=1;jettySize=auto;html=1;entryX=0.5;entryY=0;entryDx=0;entryDy=0;endArrow=none;endFill=0;" edge="1" parent="1" source="nzNf29XOqBKROtPsoa88-82" target="d7jLBemJhKZGt51rczIr-1">
          <mxGeometry relative="1" as="geometry">
            <mxPoint x="-120" y="10" as="targetPoint" />
          </mxGeometry>
        </mxCell>
        <mxCell id="nzNf29XOqBKROtPsoa88-82" value="password" style="ellipse;whiteSpace=wrap;html=1;" vertex="1" parent="1">
          <mxGeometry x="-240" y="50" width="110" height="50" as="geometry" />
        </mxCell>
        <mxCell id="nzNf29XOqBKROtPsoa88-92" style="edgeStyle=orthogonalEdgeStyle;rounded=0;orthogonalLoop=1;jettySize=auto;html=1;entryX=0;entryY=0.25;entryDx=0;entryDy=0;endArrow=none;endFill=0;" edge="1" parent="1" source="nzNf29XOqBKROtPsoa88-83" target="d7jLBemJhKZGt51rczIr-1">
          <mxGeometry relative="1" as="geometry">
            <mxPoint x="-120" y="10" as="targetPoint" />
            <Array as="points">
              <mxPoint x="-120" y="110" />
              <mxPoint x="-120" y="115" />
            </Array>
          </mxGeometry>
        </mxCell>
        <mxCell id="nzNf29XOqBKROtPsoa88-83" value="phone" style="ellipse;whiteSpace=wrap;html=1;" vertex="1" parent="1">
          <mxGeometry x="-300" y="85" width="110" height="50" as="geometry" />
        </mxCell>
        <mxCell id="nzNf29XOqBKROtPsoa88-112" style="edgeStyle=orthogonalEdgeStyle;rounded=0;orthogonalLoop=1;jettySize=auto;html=1;entryX=1;entryY=0.75;entryDx=0;entryDy=0;endArrow=ERmandOne;endFill=0;startArrow=ERzeroToMany;startFill=0;" edge="1" parent="1" source="nzNf29XOqBKROtPsoa88-113" target="d7jLBemJhKZGt51rczIr-1">
          <mxGeometry relative="1" as="geometry">
            <Array as="points">
              <mxPoint x="90" y="370" />
              <mxPoint x="90" y="135" />
            </Array>
          </mxGeometry>
        </mxCell>
        <mxCell id="nzNf29XOqBKROtPsoa88-98" value="userCoupon" style="rounded=0;whiteSpace=wrap;html=1;" vertex="1" parent="1">
          <mxGeometry x="220" y="490" width="100" height="40" as="geometry" />
        </mxCell>
        <mxCell id="nzNf29XOqBKROtPsoa88-99" style="edgeStyle=orthogonalEdgeStyle;rounded=0;orthogonalLoop=1;jettySize=auto;html=1;entryX=0;entryY=0.5;entryDx=0;entryDy=0;endArrow=none;endFill=0;" edge="1" parent="1" source="nzNf29XOqBKROtPsoa88-100" target="nzNf29XOqBKROtPsoa88-98">
          <mxGeometry relative="1" as="geometry" />
        </mxCell>
        <mxCell id="nzNf29XOqBKROtPsoa88-100" value="userCouponID" style="ellipse;whiteSpace=wrap;html=1;" vertex="1" parent="1">
          <mxGeometry x="120" y="585" width="110" height="50" as="geometry" />
        </mxCell>
        <mxCell id="nzNf29XOqBKROtPsoa88-101" style="edgeStyle=orthogonalEdgeStyle;rounded=0;orthogonalLoop=1;jettySize=auto;html=1;entryX=0;entryY=0.5;entryDx=0;entryDy=0;endArrow=none;endFill=0;" edge="1" parent="1" source="nzNf29XOqBKROtPsoa88-102" target="nzNf29XOqBKROtPsoa88-98">
          <mxGeometry relative="1" as="geometry" />
        </mxCell>
        <mxCell id="nzNf29XOqBKROtPsoa88-102" value="description" style="ellipse;whiteSpace=wrap;html=1;" vertex="1" parent="1">
          <mxGeometry x="70" y="535" width="110" height="50" as="geometry" />
        </mxCell>
        <mxCell id="nzNf29XOqBKROtPsoa88-103" style="edgeStyle=orthogonalEdgeStyle;rounded=0;orthogonalLoop=1;jettySize=auto;html=1;entryX=0.5;entryY=1;entryDx=0;entryDy=0;endArrow=none;endFill=0;" edge="1" parent="1" source="nzNf29XOqBKROtPsoa88-104" target="nzNf29XOqBKROtPsoa88-98">
          <mxGeometry relative="1" as="geometry" />
        </mxCell>
        <mxCell id="nzNf29XOqBKROtPsoa88-105" style="edgeStyle=orthogonalEdgeStyle;rounded=0;orthogonalLoop=1;jettySize=auto;html=1;entryX=1;entryY=0.5;entryDx=0;entryDy=0;endArrow=none;endFill=0;" edge="1" parent="1" source="nzNf29XOqBKROtPsoa88-106" target="nzNf29XOqBKROtPsoa88-98">
          <mxGeometry relative="1" as="geometry" />
        </mxCell>
        <mxCell id="nzNf29XOqBKROtPsoa88-106" value="discountPercent" style="ellipse;whiteSpace=wrap;html=1;" vertex="1" parent="1">
          <mxGeometry x="359" y="520" width="110" height="50" as="geometry" />
        </mxCell>
        <mxCell id="nzNf29XOqBKROtPsoa88-107" style="edgeStyle=orthogonalEdgeStyle;rounded=0;orthogonalLoop=1;jettySize=auto;html=1;entryX=1;entryY=0.5;entryDx=0;entryDy=0;endArrow=none;endFill=0;" edge="1" parent="1" source="nzNf29XOqBKROtPsoa88-108" target="nzNf29XOqBKROtPsoa88-98">
          <mxGeometry relative="1" as="geometry" />
        </mxCell>
        <mxCell id="nzNf29XOqBKROtPsoa88-108" value="userCouponEnd" style="ellipse;whiteSpace=wrap;html=1;" vertex="1" parent="1">
          <mxGeometry x="340" y="600" width="110" height="50" as="geometry" />
        </mxCell>
        <mxCell id="nzNf29XOqBKROtPsoa88-109" style="edgeStyle=orthogonalEdgeStyle;rounded=0;orthogonalLoop=1;jettySize=auto;html=1;endArrow=none;endFill=0;" edge="1" parent="1" source="nzNf29XOqBKROtPsoa88-104" target="nzNf29XOqBKROtPsoa88-98">
          <mxGeometry relative="1" as="geometry" />
        </mxCell>
        <mxCell id="nzNf29XOqBKROtPsoa88-110" value="maxDiscountAmount" style="ellipse;whiteSpace=wrap;html=1;" vertex="1" parent="1">
          <mxGeometry x="220" y="630" width="110" height="50" as="geometry" />
        </mxCell>
        <mxCell id="nzNf29XOqBKROtPsoa88-111" value="" style="edgeStyle=orthogonalEdgeStyle;rounded=0;orthogonalLoop=1;jettySize=auto;html=1;endArrow=none;endFill=0;entryX=0.5;entryY=1;entryDx=0;entryDy=0;" edge="1" parent="1" source="nzNf29XOqBKROtPsoa88-110" target="nzNf29XOqBKROtPsoa88-98">
          <mxGeometry relative="1" as="geometry">
            <mxPoint x="275" y="610" as="sourcePoint" />
            <mxPoint x="270" y="530" as="targetPoint" />
          </mxGeometry>
        </mxCell>
        <mxCell id="nzNf29XOqBKROtPsoa88-104" value="userCouponStart" style="ellipse;whiteSpace=wrap;html=1;" vertex="1" parent="1">
          <mxGeometry x="230" y="550" width="110" height="50" as="geometry" />
        </mxCell>
        <mxCell id="nzNf29XOqBKROtPsoa88-114" value="" style="edgeStyle=orthogonalEdgeStyle;rounded=0;orthogonalLoop=1;jettySize=auto;html=1;entryX=0.5;entryY=1;entryDx=0;entryDy=0;endArrow=ERmandOne;endFill=0;startArrow=ERzeroToMany;startFill=0;" edge="1" parent="1" source="nzNf29XOqBKROtPsoa88-98" target="nzNf29XOqBKROtPsoa88-113">
          <mxGeometry relative="1" as="geometry">
            <mxPoint x="270" y="490" as="sourcePoint" />
            <mxPoint x="275" y="190" as="targetPoint" />
          </mxGeometry>
        </mxCell>
        <mxCell id="nzNf29XOqBKROtPsoa88-113" value="Have" style="rhombus;whiteSpace=wrap;html=1;" vertex="1" parent="1">
          <mxGeometry x="218.5" y="350" width="103" height="40" as="geometry" />
        </mxCell>
        <mxCell id="nzNf29XOqBKROtPsoa88-117" value="cart" style="rounded=0;whiteSpace=wrap;html=1;" vertex="1" parent="1">
          <mxGeometry x="-210" y="565" width="100" height="40" as="geometry" />
        </mxCell>
        <mxCell id="nzNf29XOqBKROtPsoa88-121" style="edgeStyle=orthogonalEdgeStyle;rounded=0;orthogonalLoop=1;jettySize=auto;html=1;entryX=0.25;entryY=1;entryDx=0;entryDy=0;endArrow=none;endFill=0;" edge="1" parent="1" source="nzNf29XOqBKROtPsoa88-122" target="nzNf29XOqBKROtPsoa88-117">
          <mxGeometry relative="1" as="geometry" />
        </mxCell>
        <mxCell id="nzNf29XOqBKROtPsoa88-122" value="userId" style="ellipse;whiteSpace=wrap;html=1;" vertex="1" parent="1">
          <mxGeometry x="-110" y="690" width="110" height="50" as="geometry" />
        </mxCell>
        <mxCell id="nzNf29XOqBKROtPsoa88-125" style="edgeStyle=orthogonalEdgeStyle;rounded=0;orthogonalLoop=1;jettySize=auto;html=1;entryX=0.5;entryY=1;entryDx=0;entryDy=0;endArrow=none;endFill=0;exitX=1;exitY=0.5;exitDx=0;exitDy=0;" edge="1" parent="1" source="nzNf29XOqBKROtPsoa88-126" target="nzNf29XOqBKROtPsoa88-117">
          <mxGeometry relative="1" as="geometry">
            <mxPoint x="-159.99999999999955" y="1065" as="sourcePoint" />
            <mxPoint x="-185" y="1125" as="targetPoint" />
            <Array as="points">
              <mxPoint x="-130" y="630" />
              <mxPoint x="-160" y="630" />
            </Array>
          </mxGeometry>
        </mxCell>
        <mxCell id="nzNf29XOqBKROtPsoa88-126" value="totalPrice" style="ellipse;whiteSpace=wrap;html=1;" vertex="1" parent="1">
          <mxGeometry x="-240" y="690" width="110" height="50" as="geometry" />
        </mxCell>
        <mxCell id="nzNf29XOqBKROtPsoa88-127" style="edgeStyle=orthogonalEdgeStyle;rounded=0;orthogonalLoop=1;jettySize=auto;html=1;endArrow=none;endFill=0;entryX=0.5;entryY=1;entryDx=0;entryDy=0;" edge="1" parent="1" source="nzNf29XOqBKROtPsoa88-128" target="nzNf29XOqBKROtPsoa88-117">
          <mxGeometry relative="1" as="geometry">
            <Array as="points">
              <mxPoint x="-280" y="630" />
              <mxPoint x="-160" y="630" />
            </Array>
            <mxPoint x="-160" y="620" as="targetPoint" />
          </mxGeometry>
        </mxCell>
        <mxCell id="nzNf29XOqBKROtPsoa88-128" value="cartID" style="ellipse;whiteSpace=wrap;html=1;" vertex="1" parent="1">
          <mxGeometry x="-380" y="700" width="110" height="50" as="geometry" />
        </mxCell>
        <mxCell id="nzNf29XOqBKROtPsoa88-132" value="" style="edgeStyle=orthogonalEdgeStyle;rounded=0;orthogonalLoop=1;jettySize=auto;html=1;entryX=0.5;entryY=0;entryDx=0;entryDy=0;endArrow=ERmandOne;endFill=0;startArrow=ERmandOne;startFill=0;" edge="1" parent="1" source="d7jLBemJhKZGt51rczIr-1" target="nzNf29XOqBKROtPsoa88-131">
          <mxGeometry relative="1" as="geometry">
            <mxPoint x="-60" y="145" as="sourcePoint" />
            <mxPoint x="-160" y="565" as="targetPoint" />
          </mxGeometry>
        </mxCell>
        <mxCell id="nzNf29XOqBKROtPsoa88-131" value="Have" style="rhombus;whiteSpace=wrap;html=1;" vertex="1" parent="1">
          <mxGeometry x="-111.5" y="265" width="103" height="40" as="geometry" />
        </mxCell>
        <mxCell id="nzNf29XOqBKROtPsoa88-140" style="edgeStyle=orthogonalEdgeStyle;rounded=0;orthogonalLoop=1;jettySize=auto;html=1;endArrow=ERmandOne;endFill=0;startArrow=ERzeroToMany;startFill=0;" edge="1" parent="1" source="nzNf29XOqBKROtPsoa88-142" target="nzNf29XOqBKROtPsoa88-117">
          <mxGeometry relative="1" as="geometry" />
        </mxCell>
        <mxCell id="nzNf29XOqBKROtPsoa88-133" value="cartDetails" style="rounded=0;whiteSpace=wrap;html=1;" vertex="1" parent="1">
          <mxGeometry x="-610" y="560" width="100" height="40" as="geometry" />
        </mxCell>
        <mxCell id="nzNf29XOqBKROtPsoa88-135" style="edgeStyle=orthogonalEdgeStyle;rounded=0;orthogonalLoop=1;jettySize=auto;html=1;entryX=0.5;entryY=1;entryDx=0;entryDy=0;endArrow=none;endFill=0;" edge="1" parent="1" source="nzNf29XOqBKROtPsoa88-134" target="nzNf29XOqBKROtPsoa88-133">
          <mxGeometry relative="1" as="geometry" />
        </mxCell>
        <mxCell id="nzNf29XOqBKROtPsoa88-134" value="cartID" style="ellipse;whiteSpace=wrap;html=1;" vertex="1" parent="1">
          <mxGeometry x="-770" y="670" width="110" height="50" as="geometry" />
        </mxCell>
        <mxCell id="nzNf29XOqBKROtPsoa88-137" style="edgeStyle=orthogonalEdgeStyle;rounded=0;orthogonalLoop=1;jettySize=auto;html=1;entryX=0.5;entryY=1;entryDx=0;entryDy=0;endArrow=none;endFill=0;" edge="1" parent="1" source="nzNf29XOqBKROtPsoa88-136" target="nzNf29XOqBKROtPsoa88-133">
          <mxGeometry relative="1" as="geometry" />
        </mxCell>
        <mxCell id="nzNf29XOqBKROtPsoa88-136" value="cartDetailID" style="ellipse;whiteSpace=wrap;html=1;" vertex="1" parent="1">
          <mxGeometry x="-730" y="730" width="110" height="50" as="geometry" />
        </mxCell>
        <mxCell id="nzNf29XOqBKROtPsoa88-139" style="edgeStyle=orthogonalEdgeStyle;rounded=0;orthogonalLoop=1;jettySize=auto;html=1;entryX=0.5;entryY=1;entryDx=0;entryDy=0;endArrow=none;endFill=0;" edge="1" parent="1" source="nzNf29XOqBKROtPsoa88-138" target="nzNf29XOqBKROtPsoa88-133">
          <mxGeometry relative="1" as="geometry" />
        </mxCell>
        <mxCell id="nzNf29XOqBKROtPsoa88-138" value="productID" style="ellipse;whiteSpace=wrap;html=1;" vertex="1" parent="1">
          <mxGeometry x="-570" y="750" width="110" height="50" as="geometry" />
        </mxCell>
        <mxCell id="nzNf29XOqBKROtPsoa88-143" value="" style="edgeStyle=orthogonalEdgeStyle;rounded=0;orthogonalLoop=1;jettySize=auto;html=1;endArrow=ERmandOne;endFill=0;startArrow=ERzeroToMany;startFill=0;" edge="1" parent="1" source="nzNf29XOqBKROtPsoa88-133" target="nzNf29XOqBKROtPsoa88-142">
          <mxGeometry relative="1" as="geometry">
            <mxPoint x="-510" y="580" as="sourcePoint" />
            <mxPoint x="-210" y="585" as="targetPoint" />
          </mxGeometry>
        </mxCell>
        <mxCell id="nzNf29XOqBKROtPsoa88-142" value="Have" style="rhombus;whiteSpace=wrap;html=1;" vertex="1" parent="1">
          <mxGeometry x="-413.5" y="565" width="103" height="40" as="geometry" />
        </mxCell>
        <mxCell id="nzNf29XOqBKROtPsoa88-147" style="edgeStyle=orthogonalEdgeStyle;rounded=0;orthogonalLoop=1;jettySize=auto;html=1;entryX=0.5;entryY=0;entryDx=0;entryDy=0;endArrow=none;endFill=0;" edge="1" parent="1" source="nzNf29XOqBKROtPsoa88-146" target="tjTPalz4Y8jjselVKnhg-13">
          <mxGeometry relative="1" as="geometry" />
        </mxCell>
        <mxCell id="nzNf29XOqBKROtPsoa88-146" value="status" style="ellipse;whiteSpace=wrap;html=1;" vertex="1" parent="1">
          <mxGeometry x="150" y="-350" width="110" height="50" as="geometry" />
        </mxCell>
        <mxCell id="nzNf29XOqBKROtPsoa88-150" style="edgeStyle=orthogonalEdgeStyle;rounded=0;orthogonalLoop=1;jettySize=auto;html=1;endArrow=none;endFill=0;" edge="1" parent="1" source="nzNf29XOqBKROtPsoa88-149" target="d7jLBemJhKZGt51rczIr-1">
          <mxGeometry relative="1" as="geometry" />
        </mxCell>
        <mxCell id="nzNf29XOqBKROtPsoa88-149" value="&lt;code data-end=&quot;1281&quot; data-start=&quot;1268&quot;&gt;lastLoginAt&lt;/code&gt;" style="ellipse;whiteSpace=wrap;html=1;" vertex="1" parent="1">
          <mxGeometry x="-430" width="110" height="50" as="geometry" />
        </mxCell>
        <mxCell id="nzNf29XOqBKROtPsoa88-152" style="edgeStyle=orthogonalEdgeStyle;rounded=0;orthogonalLoop=1;jettySize=auto;html=1;entryX=1;entryY=0.75;entryDx=0;entryDy=0;endArrow=none;endFill=0;" edge="1" parent="1" source="nzNf29XOqBKROtPsoa88-151" target="nzNf29XOqBKROtPsoa88-59">
          <mxGeometry relative="1" as="geometry" />
        </mxCell>
        <mxCell id="nzNf29XOqBKROtPsoa88-151" value="status" style="ellipse;whiteSpace=wrap;html=1;" vertex="1" parent="1">
          <mxGeometry x="620" y="-480" width="118" height="50" as="geometry" />
        </mxCell>
      </root>
    </mxGraphModel>
  </diagram>
</mxfile>
